<svg width="123" height="22" viewBox="0 0 123 22" fill="none" xmlns="http://www.w3.org/2000/svg">
<path d="M8.45 -1.43051e-06C5.87 -1.43051e-06 2.78 -1.43051e-06 0.2 -1.43051e-06V21C2.78 21 5.87 21 8.45 21C15.8 21 19.04 15.63 18.95 10.32C18.86 5.13 15.65 -1.43051e-06 8.45 -1.43051e-06ZM4.13 3.75H8.45C13.01 3.75 14.93 7.02 15.02 10.29C15.11 13.71 13.22 17.19 8.45 17.19H4.13V3.75ZM28.5467 5.91C23.8367 5.91 20.8967 9.39 20.8967 13.62C20.8967 17.88 23.7767 21.33 28.5767 21.33C33.3767 21.33 36.2867 17.88 36.2867 13.62C36.2867 9.39 33.2567 5.91 28.5467 5.91ZM28.5767 9.24C31.0367 9.24 32.5967 11.4 32.5967 13.62C32.5967 15.87 31.2467 17.97 28.5767 17.97C25.9067 17.97 24.5567 15.87 24.5567 13.62C24.5567 11.4 25.9367 9.24 28.5767 9.24ZM53.3633 21V13.23C53.3633 8.58 50.5733 5.97 47.0933 5.97C45.2333 5.97 43.7333 6.72 42.2333 8.19L41.9933 6.18H38.7233V21H42.3533V13.44C42.3533 11.19 43.8833 9.3 46.1333 9.3C48.4733 9.3 49.7033 11.01 49.7033 13.26V21H53.3633ZM68.1186 8.25C67.2786 6.78 65.3886 5.85 63.4086 5.85C59.0886 5.82 55.6986 8.49 55.6986 13.59C55.6986 18.78 58.9386 21.48 63.3186 21.45C64.9686 21.42 67.2786 20.58 68.1186 18.84L68.2986 21H71.7486V6.21H68.2386L68.1186 8.25ZM63.7386 9.12C69.4986 9.12 69.4986 18.09 63.7386 18.09C61.3086 18.09 59.3586 16.41 59.3586 13.59C59.3586 10.77 61.3086 9.12 63.7386 9.12ZM75.7039 2.43V6.24H72.9439V9.39H75.7039V15.78C75.7039 19.47 77.8039 21.3 81.0139 21.18C82.1239 21.15 82.9939 20.97 84.0439 20.55L83.0239 17.43C82.4839 17.7 81.8239 17.88 81.2539 17.88C80.1139 17.88 79.3339 17.19 79.3339 15.78V9.39H83.4439V6.24H79.3639V2.04L75.7039 2.43ZM100.856 14.91C101.426 8.82 98.3363 5.76 93.3863 5.76C88.5863 5.76 85.5263 9 85.5263 13.5C85.5263 18.24 88.5563 21.39 93.6563 21.39C95.9063 21.39 98.4563 20.61 100.016 18.99L97.6763 16.68C96.8363 17.55 95.0663 18.06 93.7163 18.06C91.1363 18.06 89.5463 16.74 89.3063 14.91H100.856ZM89.3663 11.88C89.9063 9.96 91.5263 9 93.5063 9C95.6063 9 97.1063 9.96 97.3463 11.88H89.3663ZM112.947 7.83L107.697 -1.43051e-06H103.347V0.18L110.427 10.38L103.137 20.88V21H107.577L112.947 13.11L118.317 21H122.757V20.88L115.437 10.38L122.547 0.18V-1.43051e-06H118.197L112.947 7.83Z" fill="#252525"/>
</svg>
